<svg xmlns="http://www.w3.org/2000/svg" version="1.1" xmlns:xlink="http://www.w3.org/1999/xlink" xmlns:svgjs="http://svgjs.com/svgjs" width="512" height="512" x="0" y="0" viewBox="0 0 48 48" style="enable-background:new 0 0 512 512" xml:space="preserve" class=""><g transform="matrix(1.11,0,0,1.11,-2.6399999999999935,-2.6399999999999935)"><g xmlns="http://www.w3.org/2000/svg"><path d="m24 45.5c10.75 0 19.5-8.75 19.5-19.5 0-10.25-7.95-18.65-18-19.42v-1.08h2.5c.83 0 1.5-.67 1.5-1.5s-.67-1.5-1.5-1.5h-8c-.83 0-1.5.67-1.5 1.5s.67 1.5 1.5 1.5h2.5v1.08c-10.05.77-18 9.17-18 19.42 0 10.75 8.75 19.5 19.5 19.5zm0-36c9.1 0 16.5 7.4 16.5 16.5s-7.4 16.5-16.5 16.5-16.5-7.4-16.5-16.5 7.4-16.5 16.5-16.5z" fill="#6b6b6b" data-original="#000000" class=""></path><path d="m24 27.5h8c.83 0 1.5-.67 1.5-1.5s-.67-1.5-1.5-1.5h-6.5v-8.5c0-.83-.67-1.5-1.5-1.5s-1.5.67-1.5 1.5v10c0 .83.67 1.5 1.5 1.5z" fill="#6b6b6b" data-original="#000000" class=""></path></g></g></svg>